<svg width="21" height="20" viewBox="0 0 21 20" fill="none" xmlns="http://www.w3.org/2000/svg">
<path d="M18.5001 19.75H18.3726C3.63506 18.9025 1.54256 6.4675 1.25006 2.6725C1.22649 2.37744 1.26138 2.08062 1.35272 1.79906C1.44406 1.5175 1.59006 1.25673 1.78235 1.03169C1.97464 0.80665 2.20945 0.621766 2.47332 0.48763C2.73719 0.353493 3.02493 0.272741 3.32006 0.250001H7.45256C7.75298 0.24971 8.04657 0.339633 8.29529 0.508122C8.54401 0.676611 8.73641 0.915903 8.84756 1.195L9.98756 4C10.0973 4.27266 10.1246 4.57156 10.0659 4.85957C10.0072 5.14758 9.86524 5.412 9.65756 5.62L8.06006 7.2325C8.3096 8.65056 8.9887 9.95775 10.0055 10.9772C11.0223 11.9967 12.3277 12.6792 13.7451 12.9325L15.3726 11.32C15.5837 11.1146 15.8506 10.9759 16.14 10.9213C16.4294 10.8666 16.7286 10.8983 17.0001 11.0125L19.8276 12.145C20.1025 12.2597 20.337 12.4536 20.5013 12.702C20.6656 12.9504 20.7522 13.2422 20.7501 13.54V17.5C20.7501 18.0967 20.513 18.669 20.0911 19.091C19.6691 19.5129 19.0968 19.75 18.5001 19.75ZM3.50006 1.75C3.30115 1.75 3.11039 1.82902 2.96973 1.96967C2.82908 2.11032 2.75006 2.30109 2.75006 2.5V2.56C3.09506 7 5.30756 17.5 18.4551 18.25C18.5536 18.2561 18.6524 18.2427 18.7457 18.2105C18.839 18.1783 18.9251 18.1281 18.9989 18.0626C19.0728 17.9971 19.133 17.9176 19.1761 17.8288C19.2192 17.74 19.2443 17.6436 19.2501 17.545V13.54L16.4226 12.4075L14.2701 14.545L13.9101 14.5C7.38506 13.6825 6.50006 7.1575 6.50006 7.09L6.45506 6.73L8.58506 4.5775L7.46006 1.75H3.50006Z" fill="#E7946D" stroke="#E7946D" stroke-width="0.5"/>
</svg>
